<svg xmlns="http://www.w3.org/2000/svg"
     width="24"
     height="24"
     viewBox="0 0 24 24">

  <!-- White Circular Background -->
  <circle cx="12" cy="12" r="12" fill="white"/>

  <!-- Scaled & Centered HousePlus Icon -->
  <g fill="none"
     stroke="black"
     stroke-width="2"
     stroke-linecap="round"
     stroke-linejoin="round"
     transform="translate(3 3) scale(0.75)">
    <path d="M12.35 21H5a2 2 0 0 1-2-2v-9a2 2 0 0 1 .71-1.53l7-6a2 2 0 0 1 2.58 0l7 6A2 2 0 0 1 21 10v2.35"/>
    <path d="M14.8 12.4A1 1 0 0 0 14 12h-4a1 1 0 0 0-1 1v8"/>
    <path d="M15 18h6"/>
    <path d="M18 15v6"/>
  </g>
</svg>
